<?xml version="1.0" standalone="no"?><svg xmlns="http://www.w3.org/2000/svg" xmlns:xlink="http://www.w3.org/1999/xlink" viewBox="65.112 95.576 221.12 45.984" width="221.12" height="45.984"><path d=" M 76.92 117.512 L 76.92 117.512 L 76.92 117.512 Q 75.624 117.512 74.952 117.464 L 74.952 117.464 L 74.952 117.464 Q 72.888 126.488 72.648 129.992 L 72.648 129.992 L 72.648 129.992 Q 70.584 131 66.36 131 L 66.36 131 L 66.36 131 Q 65.448 131 65.112 130.952 L 65.112 130.952 L 65.112 130.952 Q 65.448 128.12 67.992 116.72 L 67.992 116.72 L 67.992 116.72 Q 70.536 105.32 70.536 102.344 L 70.536 102.344 L 70.536 102.344 Q 70.536 101.768 69.888 100.832 L 69.888 100.832 L 69.888 100.832 Q 69.24 99.896 68.568 99.272 L 68.568 99.272 L 67.944 98.648 L 68.088 97.928 L 68.088 97.928 Q 76.152 96.728 81.144 96.728 L 81.144 96.728 L 81.144 96.728 Q 91.032 96.728 91.032 104.792 L 91.032 104.792 L 91.032 104.792 Q 91.032 110.168 87.48 113.84 L 87.48 113.84 L 87.48 113.84 Q 83.928 117.512 76.92 117.512 Z  M 75.672 114.296 L 76.152 114.296 L 76.152 114.296 Q 79.848 114.296 81.744 111.512 L 81.744 111.512 L 81.744 111.512 Q 83.64 108.728 83.64 104.072 L 83.64 104.072 L 83.64 104.072 Q 83.64 102.152 82.92 100.928 L 82.92 100.928 L 82.92 100.928 Q 82.2 99.704 80.808 99.704 L 80.808 99.704 L 80.808 99.704 Q 79.896 99.704 78.552 100.04 L 78.552 100.04 L 78.552 100.04 Q 77.784 105.08 75.672 114.296 L 75.672 114.296 L 75.672 114.296 Z  M 99.584 112.52 L 99.584 112.52 L 99.584 112.52 Q 99.584 114.536 98.288 119.456 L 98.288 119.456 L 98.288 119.456 Q 96.992 124.376 96.992 125.888 L 96.992 125.888 L 96.992 125.888 Q 96.992 127.4 97.424 127.4 L 97.424 127.4 L 97.424 127.4 Q 97.712 127.4 99.632 126.488 L 99.632 126.488 L 100.208 126.2 L 101.024 127.88 L 101.024 127.88 Q 100.592 128.264 99.872 128.84 L 99.872 128.84 L 99.872 128.84 Q 99.152 129.416 97.184 130.4 L 97.184 130.4 L 97.184 130.4 Q 95.216 131.384 93.536 131.384 L 93.536 131.384 L 93.536 131.384 Q 91.856 131.384 90.896 130.352 L 90.896 130.352 L 90.896 130.352 Q 89.936 129.32 89.936 127.568 L 89.936 127.568 L 89.936 127.568 Q 89.936 125.816 91.136 121.328 L 91.136 121.328 L 91.136 121.328 Q 92.336 116.84 92.336 115.496 L 92.336 115.496 L 92.336 115.496 Q 92.336 113.48 91.088 111.704 L 91.088 111.704 L 90.656 111.128 L 90.704 110.504 L 90.704 110.504 Q 93.248 109.784 98.96 109.784 L 98.96 109.784 L 98.96 109.784 Q 99.584 110.504 99.584 112.52 Z  M 94.112 104.528 L 94.112 104.528 L 94.112 104.528 Q 93.152 103.592 93.152 102.008 L 93.152 102.008 L 93.152 102.008 Q 93.152 100.424 94.472 99.224 L 94.472 99.224 L 94.472 99.224 Q 95.792 98.024 97.52 98.024 L 97.52 98.024 L 97.52 98.024 Q 99.248 98.024 100.208 98.984 L 100.208 98.984 L 100.208 98.984 Q 101.168 99.944 101.168 101.504 L 101.168 101.504 L 101.168 101.504 Q 101.168 103.064 99.8 104.264 L 99.8 104.264 L 99.8 104.264 Q 98.432 105.464 96.752 105.464 L 96.752 105.464 L 96.752 105.464 Q 95.072 105.464 94.112 104.528 Z  M 112.744 111.944 L 112.744 111.944 L 112.744 111.944 Q 110.824 111.944 109.672 115.136 L 109.672 115.136 L 109.672 115.136 Q 108.52 118.328 108.52 121.976 L 108.52 121.976 L 108.52 121.976 Q 108.52 127.736 112.072 127.736 L 112.072 127.736 L 112.072 127.736 Q 113.224 127.736 114.52 127.184 L 114.52 127.184 L 114.52 127.184 Q 115.816 126.632 116.584 126.104 L 116.584 126.104 L 117.304 125.528 L 118.408 127.016 L 118.408 127.016 Q 118.024 127.544 116.872 128.408 L 116.872 128.408 L 116.872 128.408 Q 115.72 129.272 114.712 129.848 L 114.712 129.848 L 114.712 129.848 Q 113.704 130.424 112.12 130.904 L 112.12 130.904 L 112.12 130.904 Q 110.536 131.384 109 131.384 L 109 131.384 L 109 131.384 Q 105.256 131.384 103.384 128.936 L 103.384 128.936 L 103.384 128.936 Q 101.512 126.488 101.512 122.36 L 101.512 122.36 L 101.512 122.36 Q 101.512 116.648 104.656 113.096 L 104.656 113.096 L 104.656 113.096 Q 107.8 109.544 112.744 109.544 L 112.744 109.544 L 112.744 109.544 Q 115.96 109.544 117.856 111.008 L 117.856 111.008 L 117.856 111.008 Q 119.752 112.472 119.752 114.608 L 119.752 114.608 L 119.752 114.608 Q 119.752 116.744 118.408 118.28 L 118.408 118.28 L 118.408 118.28 Q 117.208 118.28 115.624 117.752 L 115.624 117.752 L 115.624 117.752 Q 114.04 117.224 113.224 116.456 L 113.224 116.456 L 113.944 112.232 L 113.944 112.232 Q 113.512 111.944 112.744 111.944 Z  M 125.184 99.128 L 125.184 99.128 L 125.184 99.128 Q 125.184 97.544 124.896 96.872 L 124.896 96.872 L 124.896 96.872 Q 128.64 95.576 131.952 95.576 L 131.952 95.576 L 131.952 95.576 Q 132.384 96.008 132.384 97.784 L 132.384 97.784 L 132.384 97.784 Q 132.384 101.768 129.744 113.048 L 129.744 113.048 L 129.744 113.048 Q 134.016 109.544 138.192 109.544 L 138.192 109.544 L 138.192 109.544 Q 140.064 109.544 141.36 110.696 L 141.36 110.696 L 141.36 110.696 Q 142.656 111.848 142.656 114.056 L 142.656 114.056 L 142.656 114.056 Q 142.656 118.184 135.888 120.056 L 135.888 120.056 L 135.888 120.056 Q 137.472 125.048 138.672 126.824 L 138.672 126.824 L 138.672 126.824 Q 139.2 127.592 139.44 127.592 L 139.44 127.592 L 139.44 127.592 Q 139.968 127.592 141.648 126.776 L 141.648 126.776 L 142.176 126.536 L 142.944 128.168 L 142.944 128.168 Q 141.792 129.224 139.752 130.304 L 139.752 130.304 L 139.752 130.304 Q 137.712 131.384 136.032 131.384 L 136.032 131.384 L 136.032 131.384 Q 132.288 131.384 130.8 124.568 L 130.8 124.568 L 130.8 124.568 Q 130.128 121.64 129.984 119.096 L 129.984 119.096 L 129.984 119.096 Q 133.056 118.376 134.568 117.344 L 134.568 117.344 L 134.568 117.344 Q 136.08 116.312 136.08 114.704 L 136.08 114.704 L 136.08 114.704 Q 136.08 113.096 134.448 113.096 L 134.448 113.096 L 134.448 113.096 Q 132.816 113.096 128.976 116.36 L 128.976 116.36 L 128.976 116.36 Q 126.576 126.488 126.576 130.232 L 126.576 130.232 L 126.576 130.232 Q 123.936 131 119.712 131 L 119.712 131 L 119.712 131 Q 119.664 130.184 119.664 129.56 L 119.664 129.56 L 119.664 129.56 Q 119.664 127.496 122.424 115.448 L 122.424 115.448 L 122.424 115.448 Q 125.184 103.4 125.184 99.128 Z  M 148.232 96.728 L 148.232 96.728 L 164.264 97.256 L 168.776 97.16 L 168.776 97.16 Q 168.92 98.168 168.92 99.272 L 168.92 99.272 L 168.92 99.272 Q 168.92 100.376 168.536 100.856 L 168.536 100.856 L 168.536 100.856 Q 168.152 101.336 167.144 101.336 L 167.144 101.336 L 167.144 101.336 Q 167.048 101.336 160.376 100.712 L 160.376 100.712 L 160.376 100.712 Q 160.184 102.872 158.936 108.104 L 158.936 108.104 L 158.936 108.104 Q 157.688 113.336 156.536 119.288 L 156.536 119.288 L 156.536 119.288 Q 155.384 125.24 155.336 129.992 L 155.336 129.992 L 155.336 129.992 Q 153.464 130.952 147.656 130.952 L 147.656 130.952 L 147.32 130.952 L 147.32 130.952 Q 147.32 128.456 150.056 116.072 L 150.056 116.072 L 150.056 116.072 Q 152.792 103.688 152.792 101 L 152.792 101 L 152.792 101 Q 152.792 100.808 152.696 100.328 L 152.696 100.328 L 150.776 100.328 L 150.776 100.328 Q 146.84 100.328 144.728 101.528 L 144.728 101.528 L 144.728 101.528 Q 143.624 100.088 143.384 97.304 L 143.384 97.304 L 143.384 97.304 Q 145.016 96.728 148.232 96.728 Z  M 171.712 99.128 L 171.712 99.128 L 171.712 99.128 Q 171.712 97.544 171.424 96.872 L 171.424 96.872 L 171.424 96.872 Q 175.168 95.576 178.48 95.576 L 178.48 95.576 L 178.48 95.576 Q 178.912 96.008 178.912 97.784 L 178.912 97.784 L 178.912 97.784 Q 178.912 100.952 176.224 112.376 L 176.224 112.376 L 176.224 112.376 Q 180.112 109.544 183.04 109.544 L 183.04 109.544 L 183.04 109.544 Q 184.864 109.544 185.8 110.696 L 185.8 110.696 L 185.8 110.696 Q 186.736 111.848 186.736 113.744 L 186.736 113.744 L 186.736 113.744 Q 186.736 115.64 185.632 119.936 L 185.632 119.936 L 185.632 119.936 Q 184.528 124.232 184.528 125.816 L 184.528 125.816 L 184.528 125.816 Q 184.528 127.4 184.912 127.4 L 184.912 127.4 L 184.912 127.4 Q 185.296 127.4 186.928 126.536 L 186.928 126.536 L 187.504 126.248 L 188.368 127.928 L 188.368 127.928 Q 187.936 128.312 187.216 128.888 L 187.216 128.888 L 187.216 128.888 Q 186.496 129.464 184.576 130.424 L 184.576 130.424 L 184.576 130.424 Q 182.656 131.384 181.048 131.384 L 181.048 131.384 L 181.048 131.384 Q 179.44 131.384 178.48 130.352 L 178.48 130.352 L 178.48 130.352 Q 177.52 129.32 177.52 127.568 L 177.52 127.568 L 177.52 127.568 Q 177.52 125.816 178.6 121.184 L 178.6 121.184 L 178.6 121.184 Q 179.68 116.552 179.68 115.328 L 179.68 115.328 L 179.68 115.328 Q 179.68 114.104 178.672 114.104 L 178.672 114.104 L 178.672 114.104 Q 177.424 114.104 175.552 115.16 L 175.552 115.16 L 175.552 115.16 Q 172.912 126.776 172.912 130.232 L 172.912 130.232 L 172.912 130.232 Q 170.896 131 166.048 131 L 166.048 131 L 166.048 131 Q 166 130.184 166 129.56 L 166 129.56 L 166 129.56 Q 166 127.496 168.856 115.448 L 168.856 115.448 L 168.856 115.448 Q 171.712 103.4 171.712 99.128 Z  M 198.84 112.52 L 198.84 112.52 L 198.84 112.52 Q 198.84 114.536 197.544 119.456 L 197.544 119.456 L 197.544 119.456 Q 196.248 124.376 196.248 125.888 L 196.248 125.888 L 196.248 125.888 Q 196.248 127.4 196.68 127.4 L 196.68 127.4 L 196.68 127.4 Q 196.968 127.4 198.888 126.488 L 198.888 126.488 L 199.464 126.2 L 200.28 127.88 L 200.28 127.88 Q 199.848 128.264 199.128 128.84 L 199.128 128.84 L 199.128 128.84 Q 198.408 129.416 196.44 130.4 L 196.44 130.4 L 196.44 130.4 Q 194.472 131.384 192.792 131.384 L 192.792 131.384 L 192.792 131.384 Q 191.112 131.384 190.152 130.352 L 190.152 130.352 L 190.152 130.352 Q 189.192 129.32 189.192 127.568 L 189.192 127.568 L 189.192 127.568 Q 189.192 125.816 190.392 121.328 L 190.392 121.328 L 190.392 121.328 Q 191.592 116.84 191.592 115.496 L 191.592 115.496 L 191.592 115.496 Q 191.592 113.48 190.344 111.704 L 190.344 111.704 L 189.912 111.128 L 189.96 110.504 L 189.96 110.504 Q 192.504 109.784 198.216 109.784 L 198.216 109.784 L 198.216 109.784 Q 198.84 110.504 198.84 112.52 Z  M 193.368 104.528 L 193.368 104.528 L 193.368 104.528 Q 192.408 103.592 192.408 102.008 L 192.408 102.008 L 192.408 102.008 Q 192.408 100.424 193.728 99.224 L 193.728 99.224 L 193.728 99.224 Q 195.048 98.024 196.776 98.024 L 196.776 98.024 L 196.776 98.024 Q 198.504 98.024 199.464 98.984 L 199.464 98.984 L 199.464 98.984 Q 200.424 99.944 200.424 101.504 L 200.424 101.504 L 200.424 101.504 Q 200.424 103.064 199.056 104.264 L 199.056 104.264 L 199.056 104.264 Q 197.688 105.464 196.008 105.464 L 196.008 105.464 L 196.008 105.464 Q 194.328 105.464 193.368 104.528 Z  M 215.792 124.52 L 215.792 124.52 L 215.792 124.52 Q 215.792 127.544 213.128 129.464 L 213.128 129.464 L 213.128 129.464 Q 210.464 131.384 207.056 131.384 L 207.056 131.384 L 207.056 131.384 Q 203.648 131.384 201.656 129.944 L 201.656 129.944 L 201.656 129.944 Q 199.664 128.504 199.664 127.4 L 199.664 127.4 L 199.664 127.4 Q 199.664 126.728 201.344 125.216 L 201.344 125.216 L 201.344 125.216 Q 203.024 123.704 204.176 123.368 L 204.176 123.368 L 204.176 123.368 Q 206.576 125.144 208.112 128.984 L 208.112 128.984 L 208.112 128.984 Q 209.888 128.84 209.888 127.304 L 209.888 127.304 L 209.888 127.304 Q 209.888 125.096 206 121.04 L 206 121.04 L 206 121.04 Q 202.112 116.984 202.112 114.584 L 202.112 114.584 L 202.112 114.584 Q 202.112 112.184 204.272 110.864 L 204.272 110.864 L 204.272 110.864 Q 206.432 109.544 209.48 109.544 L 209.48 109.544 L 209.48 109.544 Q 212.528 109.544 214.064 110.624 L 214.064 110.624 L 214.064 110.624 Q 215.6 111.704 215.6 113.552 L 215.6 113.552 L 215.6 113.552 Q 215.6 115.4 212.672 118.664 L 212.672 118.664 L 212.672 118.664 Q 213.008 119 213.536 119.552 L 213.536 119.552 L 213.536 119.552 Q 214.064 120.104 214.928 121.64 L 214.928 121.64 L 214.928 121.64 Q 215.792 123.176 215.792 124.52 Z  M 211.184 116.984 L 211.184 116.984 Q 213.2 115.256 213.2 113.576 L 213.2 113.576 L 213.2 113.576 Q 213.2 111.896 210.896 111.896 L 210.896 111.896 L 210.896 111.896 Q 209.792 111.896 209.072 112.352 L 209.072 112.352 L 209.072 112.352 Q 208.352 112.808 208.352 113.384 L 208.352 113.384 L 208.352 113.384 Q 208.352 114.44 210.464 116.36 L 210.464 116.36 L 211.184 116.984 L 211.184 116.984 Z  M 218.44 130.184 L 218.44 130.184 L 218.44 130.184 Q 218.104 131.24 216.928 131.24 L 216.928 131.24 L 216.928 131.24 Q 215.752 131.24 214.264 129.944 L 214.264 129.944 L 214.264 129.944 Q 215.704 125.72 220.36 116.336 L 220.36 116.336 L 220.36 116.336 Q 225.016 106.952 226.408 102.296 L 226.408 102.296 L 226.408 102.296 Q 226.6 101.528 226.6 101.24 L 226.6 101.24 L 226.6 101.24 Q 226.6 100.52 225.544 99.032 L 225.544 99.032 L 225.16 98.504 L 225.256 97.88 L 225.256 97.88 Q 229.336 96.728 234.28 96.728 L 234.28 96.728 L 237.208 96.92 L 237.208 96.92 Q 237.736 97.64 238.024 99.128 L 238.024 99.128 L 238.024 99.128 Q 238.792 102.776 238.792 117.896 L 238.792 117.896 L 238.792 117.896 Q 238.792 123.752 239.8 126.152 L 239.8 126.152 L 239.8 126.152 Q 240.184 127.064 240.568 127.064 L 240.568 127.064 L 240.568 127.064 Q 240.952 127.064 242.92 126.104 L 242.92 126.104 L 243.544 125.816 L 244.504 127.544 L 244.504 127.544 Q 242.68 129.32 240.448 130.352 L 240.448 130.352 L 240.448 130.352 Q 238.216 131.384 236.344 131.384 L 236.344 131.384 L 236.344 131.384 Q 231.496 131.384 231.496 123.848 L 231.496 123.848 L 231.496 120.056 L 231.496 120.056 Q 230.248 119.768 227.704 119.768 L 227.704 119.768 L 227.704 119.768 Q 225.16 119.768 222.136 120.248 L 222.136 120.248 L 222.136 120.248 Q 219.736 125.816 218.44 130.184 Z  M 223.672 116.792 L 231.592 116.792 L 231.64 111.224 L 231.64 111.224 Q 231.64 103.928 231.016 101.336 L 231.016 101.336 L 231.016 101.336 Q 230.632 101.336 230.44 101.432 L 230.44 101.432 L 230.44 101.432 Q 229.096 105.128 227.92 107.696 L 227.92 107.696 L 227.92 107.696 Q 226.744 110.264 225.376 113.168 L 225.376 113.168 L 225.376 113.168 Q 224.008 116.072 223.672 116.792 L 223.672 116.792 L 223.672 116.792 Z  M 242.256 141.56 L 242.256 141.56 L 242.256 141.56 Q 242.016 140.984 242.016 139.016 L 242.016 139.016 L 242.016 139.016 Q 242.016 137.048 243.888 128.432 L 243.888 128.432 L 243.888 128.432 Q 245.76 119.816 245.76 115.16 L 245.76 115.16 L 245.76 115.16 Q 245.76 114.248 245.328 113.216 L 245.328 113.216 L 245.328 113.216 Q 244.896 112.184 244.416 111.608 L 244.416 111.608 L 243.984 111.08 L 244.032 110.456 L 244.032 110.456 Q 246.288 109.736 252 109.736 L 252 109.736 L 252 109.736 Q 252.528 110.744 252.672 112.568 L 252.672 112.568 L 252.672 112.568 Q 256.368 109.544 258.84 109.544 L 258.84 109.544 L 258.84 109.544 Q 261.312 109.544 262.824 111.608 L 262.824 111.608 L 262.824 111.608 Q 264.336 113.672 264.336 117.656 L 264.336 117.656 L 264.336 117.656 Q 264.336 124.616 261.792 128 L 261.792 128 L 261.792 128 Q 259.248 131.384 255.36 131.384 L 255.36 131.384 L 255.36 131.384 Q 253.344 131.384 252 130.808 L 252 130.808 L 251.52 130.616 L 251.856 128.744 L 251.856 128.744 Q 252.288 128.84 252.864 128.84 L 252.864 128.84 L 252.864 128.84 Q 254.112 128.84 255.048 127.688 L 255.048 127.688 L 255.048 127.688 Q 255.984 126.536 256.464 124.76 L 256.464 124.76 L 256.464 124.76 Q 257.424 121.208 257.424 118.184 L 257.424 118.184 L 257.424 118.184 Q 257.424 113.864 255.648 113.864 L 255.648 113.864 L 255.648 113.864 Q 254.256 113.864 252.672 114.968 L 252.672 114.968 L 252.672 114.968 Q 252.48 118.328 250.704 126.728 L 250.704 126.728 L 250.704 126.728 Q 248.928 135.128 248.928 140.264 L 248.928 140.264 L 248.928 140.264 Q 246.336 141.32 242.256 141.56 Z  M 264.152 141.56 L 264.152 141.56 L 264.152 141.56 Q 263.912 140.984 263.912 139.016 L 263.912 139.016 L 263.912 139.016 Q 263.912 137.048 265.784 128.432 L 265.784 128.432 L 265.784 128.432 Q 267.656 119.816 267.656 115.16 L 267.656 115.16 L 267.656 115.16 Q 267.656 114.248 267.224 113.216 L 267.224 113.216 L 267.224 113.216 Q 266.792 112.184 266.312 111.608 L 266.312 111.608 L 265.88 111.08 L 265.928 110.456 L 265.928 110.456 Q 268.184 109.736 273.896 109.736 L 273.896 109.736 L 273.896 109.736 Q 274.424 110.744 274.568 112.568 L 274.568 112.568 L 274.568 112.568 Q 278.264 109.544 280.736 109.544 L 280.736 109.544 L 280.736 109.544 Q 283.208 109.544 284.72 111.608 L 284.72 111.608 L 284.72 111.608 Q 286.232 113.672 286.232 117.656 L 286.232 117.656 L 286.232 117.656 Q 286.232 124.616 283.688 128 L 283.688 128 L 283.688 128 Q 281.144 131.384 277.256 131.384 L 277.256 131.384 L 277.256 131.384 Q 275.24 131.384 273.896 130.808 L 273.896 130.808 L 273.416 130.616 L 273.752 128.744 L 273.752 128.744 Q 274.184 128.84 274.76 128.84 L 274.76 128.84 L 274.76 128.84 Q 276.008 128.84 276.944 127.688 L 276.944 127.688 L 276.944 127.688 Q 277.88 126.536 278.36 124.76 L 278.36 124.76 L 278.36 124.76 Q 279.32 121.208 279.32 118.184 L 279.32 118.184 L 279.32 118.184 Q 279.32 113.864 277.544 113.864 L 277.544 113.864 L 277.544 113.864 Q 276.152 113.864 274.568 114.968 L 274.568 114.968 L 274.568 114.968 Q 274.376 118.328 272.6 126.728 L 272.6 126.728 L 272.6 126.728 Q 270.824 135.128 270.824 140.264 L 270.824 140.264 L 270.824 140.264 Q 268.232 141.32 264.152 141.56 Z " fill-rule="evenodd" fill="rgb(0,0,0)"/></svg>